<svg xmlns="http://www.w3.org/2000/svg" viewBox="0 0 80 80" style="max-width:100%" height="100%">
    <path style="line-height:normal;text-indent:0;text-align:start;text-decoration-line:none;text-decoration-style:solid;text-decoration-color:#000;text-transform:none;block-progression:tb;isolation:auto;mix-blend-mode:normal" d="M 14.423828 8.0136719 C 13.994727 7.9703822 13.569139 8.035299 13.181641 8.2363281 C 12.406645 8.6383863 12 9.5187646 12 10.408203 L 12 40.130859 L 12 69.261719 C 12 70.373922 12.556081 71.385 13.453125 71.785156 C 14.350169 72.185312 15.370325 72.00362 16.261719 71.486328 C 17.644666 70.683778 41.148438 57.041016 41.148438 57.041016 L 54.052734 49.552734 A 1.0001 1.0001 0 0 0 54.054688 49.550781 C 54.054688 49.550781 56.870143 47.906099 59.837891 46.177734 C 62.805639 44.44937 65.987865 42.603798 66.513672 42.318359 L 66.513672 42.320312 C 67.327361 41.879649 67.986898 41.133558 68 40.1875 C 68.0131 39.241442 67.36407 38.435913 66.453125 37.90625 A 1.0001 1.0001 0 0 0 66.451172 37.90625 C 64.997229 37.062836 54.048828 30.708984 54.048828 30.708984 L 41.146484 23.220703 C 41.146484 23.220703 16.874281 9.1328535 15.685547 8.4414062 C 15.285789 8.2093536 14.85293 8.0569616 14.423828 8.0136719 z M 14.248047 10.001953 C 14.340897 10.013927 14.481311 10.055262 14.679688 10.169922 C 14.699092 10.18121 15.056852 10.388212 15.087891 10.40625 A 1 1 0 0 0 16 11 A 1 1 0 0 0 16.099609 10.994141 C 16.415136 11.177383 17.718333 11.933544 18.310547 12.277344 A 1 1 0 0 0 18 13 A 1 1 0 0 0 19 14 A 1 1 0 0 0 19.96875 13.240234 C 26.895393 17.260987 40.142578 24.949219 40.142578 24.949219 L 53.044922 32.4375 C 53.044922 32.4375 63.991255 38.792133 65.447266 39.636719 L 65.447266 39.634766 C 65.99132 39.951103 66.000148 40.149464 66 40.160156 C 65.999852 40.170846 65.97481 40.33621 65.560547 40.560547 C 64.861354 40.940109 61.79958 42.719833 58.830078 44.449219 C 55.860576 46.178605 53.044922 47.824219 53.044922 47.824219 L 40.144531 55.310547 C 40.144531 55.310547 26.601604 63.173568 20 67.005859 A 1 1 0 0 0 20 67 A 1 1 0 0 0 19 66 A 1 1 0 0 0 18 67 A 1 1 0 0 0 18.509766 67.871094 C 17.971236 68.183709 16.691211 68.926705 16.410156 69.089844 A 1 1 0 0 0 16 69 A 1 1 0 0 0 15.007812 69.875 C 14.648307 70.023187 14.381442 70.008906 14.269531 69.958984 C 14.132575 69.897938 14 69.826516 14 69.261719 L 14 40.130859 L 14 10.408203 C 14 10.040642 14.08481 10.020411 14.101562 10.011719 C 14.109914 10.007369 14.155197 9.9899798 14.248047 10.001953 z M 22 15 A 1 1 0 0 0 21 16 A 1 1 0 0 0 22 17 A 1 1 0 0 0 23 16 A 1 1 0 0 0 22 15 z M 25 18 A 1 1 0 0 0 24 19 A 1 1 0 0 0 25 20 A 1 1 0 0 0 26 19 A 1 1 0 0 0 25 18 z M 28 21 A 1 1 0 0 0 27 22 A 1 1 0 0 0 28 23 A 1 1 0 0 0 29 22 A 1 1 0 0 0 28 21 z M 31 24 A 1 1 0 0 0 30 25 A 1 1 0 0 0 31 26 A 1 1 0 0 0 32 25 A 1 1 0 0 0 31 24 z M 34 27 A 1 1 0 0 0 33 28 A 1 1 0 0 0 34 29 A 1 1 0 0 0 35 28 A 1 1 0 0 0 34 27 z M 37 30 A 1 1 0 0 0 36 31 A 1 1 0 0 0 37 32 A 1 1 0 0 0 38 31 A 1 1 0 0 0 37 30 z M 40 33 A 1 1 0 0 0 39 34 A 1 1 0 0 0 40 35 A 1 1 0 0 0 41 34 A 1 1 0 0 0 40 33 z M 52 33 A 1 1 0 0 0 51 34 A 1 1 0 0 0 52 35 A 1 1 0 0 0 53 34 A 1 1 0 0 0 52 33 z M 43 36 A 1 1 0 0 0 42 37 A 1 1 0 0 0 43 38 A 1 1 0 0 0 44 37 A 1 1 0 0 0 43 36 z M 49 36 A 1 1 0 0 0 48 37 A 1 1 0 0 0 49 38 A 1 1 0 0 0 50 37 A 1 1 0 0 0 49 36 z M 46 39 A 1 1 0 0 0 45 40 A 1 1 0 0 0 46 41 A 1 1 0 0 0 47 40 A 1 1 0 0 0 46 39 z M 43 42 A 1 1 0 0 0 42 43 A 1 1 0 0 0 43 44 A 1 1 0 0 0 44 43 A 1 1 0 0 0 43 42 z M 49 42 A 1 1 0 0 0 48 43 A 1 1 0 0 0 49 44 A 1 1 0 0 0 50 43 A 1 1 0 0 0 49 42 z M 40 45 A 1 1 0 0 0 39 46 A 1 1 0 0 0 40 47 A 1 1 0 0 0 41 46 A 1 1 0 0 0 40 45 z M 52 45 A 1 1 0 0 0 51 46 A 1 1 0 0 0 52 47 A 1 1 0 0 0 53 46 A 1 1 0 0 0 52 45 z M 37 48 A 1 1 0 0 0 36 49 A 1 1 0 0 0 37 50 A 1 1 0 0 0 38 49 A 1 1 0 0 0 37 48 z M 34 51 A 1 1 0 0 0 33 52 A 1 1 0 0 0 34 53 A 1 1 0 0 0 35 52 A 1 1 0 0 0 34 51 z M 31 54 A 1 1 0 0 0 30 55 A 1 1 0 0 0 31 56 A 1 1 0 0 0 32 55 A 1 1 0 0 0 31 54 z M 28 57 A 1 1 0 0 0 27 58 A 1 1 0 0 0 28 59 A 1 1 0 0 0 29 58 A 1 1 0 0 0 28 57 z M 25 60 A 1 1 0 0 0 24 61 A 1 1 0 0 0 25 62 A 1 1 0 0 0 26 61 A 1 1 0 0 0 25 60 z M 22 63 A 1 1 0 0 0 21 64 A 1 1 0 0 0 22 65 A 1 1 0 0 0 23 64 A 1 1 0 0 0 22 63 z" fill="currentColor"></path>
</svg>